<svg width="180" height="300" viewBox="0 0 180 300" fill="none" xmlns="http://www.w3.org/2000/svg">
  <defs>
    <linearGradient id="ob" x1="60" y1="60" x2="120" y2="270" gradientUnits="userSpaceOnUse">
      <stop stop-color="#2E1820"/><stop offset="0.5" stop-color="#1A1016"/><stop offset="1" stop-color="#0C0810"/>
    </linearGradient>
    <linearGradient id="oLiq" x1="0" y1="0" x2="0" y2="1" gradientUnits="objectBoundingBox">
      <stop stop-color="#C9788E" stop-opacity="0.38"/><stop offset="1" stop-color="#C9788E" stop-opacity="0.06"/>
    </linearGradient>
    <radialGradient id="oBulb" cx="38%" cy="36%" r="60%">
      <stop stop-color="#E0A0B4" stop-opacity="0.5"/><stop offset="1" stop-color="#7A3858" stop-opacity="0.15"/>
    </radialGradient>
    <clipPath id="oMask"><ellipse cx="90" cy="195" rx="52" ry="78"/></clipPath>
  </defs>
  <ellipse cx="90" cy="26" rx="18" ry="22" fill="url(#oBulb)"/>
  <ellipse cx="90" cy="24" rx="14" ry="16" fill="#C9788E" fill-opacity="0.18"/>
  <ellipse cx="84" cy="19" rx="5" ry="4" fill="white" fill-opacity="0.13"/>
  <ellipse cx="90" cy="26" rx="18" ry="22" stroke="#C9788E" stroke-opacity="0.5" stroke-width="1"/>
  <rect x="86" y="48" width="8" height="32" rx="3" fill="#C9788E" fill-opacity="0.65" stroke="#C9788E" stroke-opacity="0.4" stroke-width="0.5"/>
  <rect x="70" y="78" width="40" height="14" rx="3" fill="#1E1018" stroke="#C9788E" stroke-opacity="0.35" stroke-width="1"/>
  <ellipse cx="90" cy="195" rx="52" ry="78" fill="url(#ob)" stroke="#C9788E" stroke-opacity="0.42" stroke-width="1.2"/>
  <rect x="38" y="222" width="104" height="56" fill="url(#oLiq)" clip-path="url(#oMask)"/>
  <ellipse cx="90" cy="222" rx="44" ry="7" fill="#C9788E" fill-opacity="0.12"/>
  <ellipse cx="52" cy="176" rx="9" ry="40" fill="white" fill-opacity="0.07"/>
  <text x="90" y="190" text-anchor="middle" fill="#E0A0B4" font-size="12" letter-spacing="3" font-family="Georgia, serif">RIKKY'S</text>
  <text x="90" y="206" text-anchor="middle" fill="#A07888" font-size="6" letter-spacing="2.5" font-family="Arial, sans-serif">HUILE PARFUMÉE</text>
  <ellipse cx="90" cy="273" rx="40" ry="5" fill="#C9788E" fill-opacity="0.07"/>
</svg>
