<svg width="180" height="300" viewBox="0 0 180 300" fill="none" xmlns="http://www.w3.org/2000/svg">
  <defs>
    <linearGradient id="pb" x1="30" y1="0" x2="150" y2="300" gradientUnits="userSpaceOnUse">
      <stop stop-color="#2E1820"/><stop offset="0.5" stop-color="#1C1018"/><stop offset="1" stop-color="#0E0810"/>
    </linearGradient>
    <linearGradient id="pc" x1="0" y1="0" x2="1" y2="1" gradientUnits="objectBoundingBox">
      <stop stop-color="#F0C0D0"/><stop offset="0.6" stop-color="#C9788E"/><stop offset="1" stop-color="#8B4E68"/>
    </linearGradient>
  </defs>
  <rect x="66" y="10" width="48" height="10" rx="2.5" fill="#F0C0D0"/>
  <rect x="58" y="20" width="64" height="26" rx="3" fill="url(#pc)"/>
  <rect x="62" y="22" width="14" height="22" rx="3" fill="white" fill-opacity="0.12"/>
  <rect x="68" y="46" width="44" height="16" rx="2" fill="#221218" stroke="#C9788E" stroke-opacity="0.28" stroke-width="1"/>
  <rect x="24" y="60" width="132" height="218" rx="7" fill="url(#pb)" stroke="#C9788E" stroke-opacity="0.45" stroke-width="1.2"/>
  <rect x="28" y="63" width="18" height="212" rx="7" fill="white" fill-opacity="0.07"/>
  <rect x="25" y="62" width="130" height="36" rx="7" fill="#C9788E" fill-opacity="0.07"/>
  <rect x="38" y="106" width="104" height="108" rx="3" fill="#C9788E" fill-opacity="0.05" stroke="#C9788E" stroke-opacity="0.36" stroke-width="1"/>
  <rect x="44" y="113" width="92" height="94" rx="2" fill="none" stroke="#C9788E" stroke-opacity="0.11" stroke-width="0.7"/>
  <line x1="48" y1="126" x2="132" y2="126" stroke="#C9788E" stroke-opacity="0.15" stroke-width="0.7"/>
  <line x1="48" y1="198" x2="132" y2="198" stroke="#C9788E" stroke-opacity="0.15" stroke-width="0.7"/>
  <path d="M49 119 L49 114 L54 114" stroke="#C9788E" stroke-opacity="0.4" stroke-width="0.9" fill="none"/>
  <path d="M131 119 L131 114 L126 114" stroke="#C9788E" stroke-opacity="0.4" stroke-width="0.9" fill="none"/>
  <path d="M49 191 L49 196 L54 196" stroke="#C9788E" stroke-opacity="0.4" stroke-width="0.9" fill="none"/>
  <path d="M131 191 L131 196 L126 196" stroke="#C9788E" stroke-opacity="0.4" stroke-width="0.9" fill="none"/>
  <text x="90" y="158" text-anchor="middle" fill="#E0A0B4" font-size="14" letter-spacing="4" font-family="Georgia, serif">RIKKY'S</text>
  <text x="90" y="176" text-anchor="middle" fill="#A07888" font-size="6.5" letter-spacing="3" font-family="Arial, sans-serif">EAU DE PARFUM</text>
  <rect x="87" y="141" width="6" height="6" fill="none" stroke="#C9788E" stroke-opacity="0.45" stroke-width="0.8" transform="rotate(45 90 144)"/>
  <rect x="26" y="256" width="128" height="20" rx="4" fill="#C9788E" fill-opacity="0.07"/>
  <ellipse cx="90" cy="278" rx="60" ry="5" fill="#C9788E" fill-opacity="0.05"/>
</svg>
