<svg width="180" height="300" viewBox="0 0 180 300" fill="none" xmlns="http://www.w3.org/2000/svg">
  <defs>
    <linearGradient id="rb" x1="56" y1="0" x2="124" y2="280" gradientUnits="userSpaceOnUse">
      <stop stop-color="#2E1820"/><stop offset="0.5" stop-color="#1A1016"/><stop offset="1" stop-color="#0E0810"/>
    </linearGradient>
    <linearGradient id="rc" x1="0" y1="0" x2="1" y2="1" gradientUnits="objectBoundingBox">
      <stop stop-color="#F0C0D0"/><stop offset="1" stop-color="#8B4E68"/>
    </linearGradient>
    <radialGradient id="rball" cx="38%" cy="36%" r="60%">
      <stop stop-color="#E0A0B4" stop-opacity="0.55"/><stop offset="1" stop-color="#7A3858" stop-opacity="0.2"/>
    </radialGradient>
  </defs>
  <ellipse cx="90" cy="24" rx="26" ry="22" fill="url(#rc)"/>
  <ellipse cx="90" cy="21" rx="20" ry="15" fill="#F0C0D0" fill-opacity="0.55"/>
  <ellipse cx="83" cy="17" rx="7" ry="5" fill="white" fill-opacity="0.14"/>
  <rect x="76" y="44" width="28" height="18" rx="4" fill="#1E1018" stroke="#C9788E" stroke-opacity="0.28" stroke-width="1"/>
  <rect x="55" y="60" width="70" height="186" rx="35" fill="url(#rb)" stroke="#C9788E" stroke-opacity="0.4" stroke-width="1.2"/>
  <rect x="59" y="64" width="12" height="178" rx="6" fill="white" fill-opacity="0.07"/>
  <text x="90" y="150" text-anchor="middle" fill="#E0A0B4" font-size="10" letter-spacing="2.5" font-family="Georgia, serif">RIKKY'S</text>
  <text x="90" y="164" text-anchor="middle" fill="#A07888" font-size="5.5" letter-spacing="2" font-family="Arial, sans-serif">ROLL-ON</text>
  <ellipse cx="90" cy="246" rx="24" ry="8" fill="#1A0C14" stroke="#C9788E" stroke-opacity="0.45" stroke-width="1"/>
  <circle cx="90" cy="262" r="20" fill="url(#rball)"/>
  <circle cx="90" cy="262" r="20" stroke="#C9788E" stroke-opacity="0.55" stroke-width="1.2"/>
  <ellipse cx="84" cy="254" rx="7" ry="5" fill="white" fill-opacity="0.13"/>
  <ellipse cx="90" cy="282" rx="20" ry="4" fill="#C9788E" fill-opacity="0.08"/>
</svg>
