<svg width="180" height="300" viewBox="0 0 180 300" fill="none" xmlns="http://www.w3.org/2000/svg">
  <defs>
    <linearGradient id="sb" x1="40" y1="0" x2="140" y2="300" gradientUnits="userSpaceOnUse">
      <stop stop-color="#2C1820"/><stop offset="0.5" stop-color="#1A1018"/><stop offset="1" stop-color="#0C0810"/>
    </linearGradient>
    <linearGradient id="sp" x1="0" y1="0" x2="1" y2="0" gradientUnits="objectBoundingBox">
      <stop stop-color="#C9788E"/><stop offset="1" stop-color="#8B4E68"/>
    </linearGradient>
  </defs>
  <circle cx="158" cy="50" r="2.5" fill="#C9788E" fill-opacity="0.45"/>
  <circle cx="165" cy="44" r="1.8" fill="#C9788E" fill-opacity="0.32"/>
  <circle cx="170" cy="54" r="1.3" fill="#C9788E" fill-opacity="0.22"/>
  <circle cx="162" cy="58" r="2" fill="#C9788E" fill-opacity="0.28"/>
  <circle cx="168" cy="38" r="1.2" fill="#C9788E" fill-opacity="0.18"/>
  <rect x="82" y="14" width="12" height="38" rx="4" fill="url(#sp)"/>
  <rect x="84" y="16" width="4" height="34" rx="2" fill="white" fill-opacity="0.14"/>
  <rect x="30" y="44" width="104" height="28" rx="5" fill="#221018" stroke="#C9788E" stroke-opacity="0.38" stroke-width="1"/>
  <rect x="34" y="47" width="18" height="22" rx="3" fill="white" fill-opacity="0.06"/>
  <rect x="130" y="50" width="30" height="12" rx="3" fill="url(#sp)"/>
  <rect x="132" y="52" width="10" height="8" rx="1.5" fill="white" fill-opacity="0.16"/>
  <rect x="22" y="72" width="120" height="198" rx="10" fill="url(#sb)" stroke="#C9788E" stroke-opacity="0.45" stroke-width="1.2"/>
  <rect x="26" y="76" width="20" height="190" rx="8" fill="white" fill-opacity="0.07"/>
  <rect x="23" y="73" width="118" height="36" rx="10" fill="#C9788E" fill-opacity="0.07"/>
  <rect x="36" y="134" width="92" height="96" rx="3" fill="#C9788E" fill-opacity="0.05" stroke="#C9788E" stroke-opacity="0.33" stroke-width="1"/>
  <line x1="44" y1="150" x2="120" y2="150" stroke="#C9788E" stroke-opacity="0.14" stroke-width="0.7"/>
  <line x1="44" y1="220" x2="120" y2="220" stroke="#C9788E" stroke-opacity="0.14" stroke-width="0.7"/>
  <text x="82" y="181" text-anchor="middle" fill="#E0A0B4" font-size="12" letter-spacing="3" font-family="Georgia, serif">RIKKY'S</text>
  <text x="82" y="197" text-anchor="middle" fill="#A07888" font-size="6" letter-spacing="2.5" font-family="Arial, sans-serif">DIFFUSEUR</text>
  <rect x="24" y="250" width="116" height="18" rx="4" fill="#C9788E" fill-opacity="0.06"/>
  <ellipse cx="82" cy="272" rx="52" ry="4" fill="#C9788E" fill-opacity="0.04"/>
</svg>
